<?xml version="1.0" standalone="no"?>
<!DOCTYPE svg PUBLIC "-//W3C//DTD SVG 20010904//EN"
 "http://www.w3.org/TR/2001/REC-SVG-20010904/DTD/svg10.dtd">
<svg version="1.0" xmlns="http://www.w3.org/2000/svg"
 width="300.000000pt" height="424.000000pt" viewBox="0 0 300.000000 424.000000"
 preserveAspectRatio="xMidYMid meet">
<metadata>
Created by potrace 1.10, written by Peter Selinger 2001-2011
</metadata>
<g transform="translate(0.000000,424.000000) scale(0.100000,-0.100000)"
fill="#000000" stroke="none">
<path d="M2980 4193 c0 -27 0 -970 0 -2098 0 -1127 -4 -2055 -8 -2061 -4 -7
-16 -14 -27 -17 -13 -3 -9 -5 13 -6 l32 -1 0 2115 c0 1163 -2 2115 -5 2115 -3
0 -5 -21 -5 -47z"/>
<path d="M1090 2782 c-33 -16 -85 -58 -133 -106 -63 -64 -80 -76 -92 -66 -21
18 -47 5 -97 -48 -51 -54 -63 -84 -78 -195 -11 -77 -11 -80 20 -144 114 -245
357 -424 556 -411 l49 3 -65 12 c-81 14 -154 39 -202 70 -21 13 -40 23 -43 23
-17 0 -75 67 -90 103 -9 23 -22 52 -27 64 -6 11 -7 26 -4 32 4 5 -2 38 -13 71
-75 228 3 419 233 569 85 55 76 68 -14 23z m-252 -252 c-29 -109 -29 -301 0
-390 20 -60 31 -80 79 -150 l17 -25 -28 25 c-41 37 -114 137 -146 200 -52 102
-57 209 -14 291 15 30 104 132 109 127 2 -2 -6 -37 -17 -78z"/>
<path d="M1830 2807 c3 -3 39 -28 80 -55 98 -64 173 -145 213 -229 30 -64 32
-74 31 -178 0 -86 -5 -123 -22 -167 -11 -32 -17 -58 -12 -58 6 0 5 -12 -1 -27
-6 -16 -12 -35 -14 -45 -13 -63 -101 -141 -204 -178 -31 -11 -65 -25 -76 -30
-11 -5 -42 -12 -70 -17 l-50 -8 52 -3 c36 -2 75 5 128 23 172 57 305 181 402
373 l41 82 7 -38 c9 -54 -11 -168 -41 -229 -34 -71 -116 -144 -200 -177 -75
-30 -222 -55 -334 -57 -66 -1 -70 -2 -35 -9 61 -13 174 -13 230 0 28 6 57 12
65 14 147 30 239 98 303 226 29 59 32 72 32 161 0 75 -4 101 -16 115 -9 11
-20 46 -24 79 -11 102 -64 198 -127 231 -47 25 -49 15 -5 -26 24 -21 57 -63
73 -92 25 -46 29 -63 29 -133 0 -71 -4 -88 -36 -155 -20 -41 -62 -107 -95
-147 -65 -79 -103 -108 -49 -38 53 70 76 145 82 266 7 140 -23 326 -51 316 -7
-3 -27 11 -43 31 -74 89 -177 168 -235 179 -18 3 -31 3 -28 0z"/>
<path d="M1149 2766 c-96 -71 -183 -193 -225 -318 -29 -82 -42 -232 -27 -288
9 -32 11 -26 17 55 17 223 69 350 193 473 24 23 43 47 43 51 0 5 6 11 14 14
12 5 43 48 34 47 -2 0 -24 -16 -49 -34z"/>
<path d="M1836 2758 c16 -18 34 -37 39 -44 6 -6 27 -29 47 -52 39 -42 108
-145 108 -160 0 -5 7 -23 15 -40 19 -38 47 -166 45 -207 -5 -79 0 -119 12
-107 17 17 14 176 -6 252 -30 120 -80 206 -176 303 -48 48 -93 87 -101 87 -7
0 0 -14 17 -32z"/>
<path d="M1584 2568 c-17 -13 -43 -36 -60 -51 -44 -43 -102 -81 -174 -115
-120 -56 -131 -60 -265 -86 -111 -22 -157 -92 -97 -148 25 -25 111 -65 157
-74 11 -2 31 -6 45 -9 51 -10 626 -6 677 5 29 6 70 25 92 41 50 35 53 65 18
155 -13 33 -26 86 -30 117 -8 77 -21 93 -56 71 -14 -10 -33 -25 -41 -34 -37
-41 -90 -51 -139 -25 -35 17 -41 32 -41 94 0 34 -5 53 -18 64 -24 22 -32 21
-68 -5z m66 -42 c0 -12 -7 -32 -16 -45 -15 -21 -15 -24 12 -53 81 -84 191 -76
247 20 l22 37 6 -85 c4 -63 13 -99 33 -139 14 -30 26 -63 26 -73 0 -25 -65
-65 -127 -78 -33 -7 -162 -10 -365 -8 -295 3 -316 5 -367 25 -76 31 -131 70
-131 92 0 31 45 58 118 71 175 30 386 138 480 245 27 31 35 35 47 25 8 -7 15
-22 15 -34z"/>
<path d="M1470 2273 c-14 -2 -77 -15 -140 -30 -109 -25 -120 -26 -209 -14 -52
6 -96 9 -98 7 -10 -9 38 -26 104 -38 65 -11 77 -9 212 22 131 30 150 32 234
25 157 -14 267 -11 311 8 60 26 35 32 -51 13 -73 -17 -84 -17 -171 -2 -88 15
-138 18 -192 9z"/>
<path d="M1880 2214 c-71 -25 -147 -30 -220 -13 -79 18 -187 13 -300 -16 -104
-26 -228 -35 -281 -21 -17 5 -20 4 -9 -2 8 -6 40 -15 70 -21 59 -12 136 -5
261 23 100 23 149 25 235 9 96 -17 197 -11 257 15 40 18 65 39 56 46 -2 2 -33
-8 -69 -20z"/>
<path d="M656 2282 c-16 -26 -16 -117 0 -187 40 -166 155 -264 369 -311 65
-14 197 -17 260 -5 31 5 12 8 -85 14 -207 10 -339 55 -430 146 -63 63 -91 137
-99 261 -4 59 -9 90 -15 82z"/>
<path d="M808 1672 c-50 -4 -61 -20 -49 -72 5 -23 7 -59 5 -79 -11 -82 -10
-84 21 -96 41 -17 99 1 103 31 2 12 11 24 22 27 10 3 21 18 25 36 10 47 27 26
24 -32 -3 -56 6 -65 71 -66 53 -1 65 11 66 71 1 29 3 77 4 106 l3 52 108 0
c109 0 109 0 109 -24 0 -13 3 -31 6 -40 3 -9 2 -16 -3 -16 -5 0 -14 14 -20 31
-9 24 -17 30 -35 27 -21 -3 -23 -8 -26 -78 -2 -62 0 -77 14 -87 26 -19 36 -16
29 8 -11 33 -13 89 -4 95 4 2 20 2 35 -2 26 -7 26 -8 20 -69 -6 -59 -5 -63 16
-69 61 -16 118 0 118 34 0 10 4 20 10 22 15 5 -13 52 -33 56 -14 3 -17 -4 -17
-37 0 -30 4 -41 15 -41 8 0 15 -4 15 -10 0 -6 -27 -10 -60 -10 -33 0 -60 4
-60 10 0 6 7 10 15 10 12 0 15 16 15 85 0 69 -3 85 -15 85 -8 0 -15 5 -15 10
0 6 38 10 95 10 l95 0 0 -42 -1 -43 -14 33 c-13 29 -19 33 -47 30 -30 -3 -33
-6 -36 -40 -3 -33 0 -38 18 -38 12 0 24 9 30 23 7 18 9 13 9 -25 1 -26 6 -50
11 -53 6 -3 10 0 10 7 1 8 7 5 15 -7 46 -63 67 -75 125 -75 44 0 66 6 92 24
l34 23 28 -23 c21 -19 39 -24 82 -24 90 0 113 20 154 133 5 15 15 27 21 27 8
0 10 -21 7 -70 -4 -46 -1 -73 6 -79 20 -17 61 -19 94 -6 l31 14 -6 66 c-6 66
-6 67 18 64 13 -2 30 0 37 4 17 11 15 72 -2 87 -19 15 -213 15 -232 -1 -10 -8
-22 -8 -45 0 -18 6 -56 11 -85 11 -41 0 -59 -5 -80 -24 l-28 -23 -34 23 c-39
27 -113 32 -157 12 -20 -9 -31 -9 -45 0 -11 6 -54 12 -97 12 -43 0 -150 0
-238 0 -88 1 -167 1 -175 1 -54 -2 -173 -1 -178 2 -4 1 -24 1 -44 -1z m142
-46 c0 -13 3 -31 6 -40 3 -9 1 -16 -5 -16 -6 0 -11 8 -11 19 0 26 -24 43 -57
39 -24 -3 -28 -8 -31 -40 -3 -33 0 -38 18 -38 13 0 24 8 27 20 10 37 23 20 23
-30 0 -27 -4 -50 -10 -50 -5 0 -10 9 -10 19 0 17 -18 31 -41 31 -5 0 -9 -18
-9 -40 0 -29 4 -40 15 -40 8 0 15 -4 15 -10 0 -6 -27 -10 -60 -10 -33 0 -60 4
-60 10 0 6 7 10 15 10 12 0 15 16 15 85 0 69 -3 85 -15 85 -8 0 -15 5 -15 10
0 6 38 10 95 10 94 0 95 0 95 -24z m140 14 c0 -5 -7 -10 -15 -10 -12 0 -15
-16 -15 -85 0 -69 3 -85 15 -85 8 0 15 -4 15 -10 0 -6 -27 -10 -60 -10 -57 0
-78 11 -45 24 12 4 15 23 15 81 0 58 -3 77 -15 81 -33 13 -12 24 45 24 33 0
60 -4 60 -10z m641 -19 c24 -24 29 -38 29 -76 0 -66 -39 -105 -105 -105 -65 0
-105 39 -105 102 0 72 36 106 113 107 30 1 45 -6 68 -28z m218 15 c58 -30 69
-119 22 -167 -24 -24 -38 -29 -76 -29 -38 0 -52 5 -76 29 -24 24 -29 38 -29
76 0 86 80 131 159 91z m290 -28 l0 -43 -17 33 c-11 24 -22 32 -37 30 -18 -3
-20 -11 -23 -85 -2 -69 0 -83 13 -83 8 0 15 -4 15 -10 0 -6 -27 -10 -60 -10
-33 0 -60 4 -60 10 0 6 7 10 15 10 13 0 15 14 13 83 -3 74 -5 82 -23 85 -15 2
-26 -6 -37 -30 l-17 -33 0 43 -1 42 110 0 110 0 -1 -42z"/>
<path d="M1629 1618 c-26 -49 -8 -168 25 -168 27 0 41 33 41 95 0 85 -37 126
-66 73z"/>
<path d="M1870 1625 c-18 -21 -24 -104 -11 -138 27 -70 71 -36 71 56 0 85 -27
122 -60 82z"/>
<path d="M1133 1618 c-6 -7 -13 -21 -16 -30 -5 -14 -1 -18 17 -18 21 0 24 -4
21 -32 -2 -18 -6 -47 -10 -65 -6 -25 -3 -33 13 -42 25 -14 92 -14 112 -1 11 7
-5 10 -52 10 -39 0 -68 4 -68 10 0 6 7 10 15 10 12 0 15 16 15 85 0 76 -2 85
-19 85 -10 0 -23 -6 -28 -12z"/>
<path d="M167 13 c24 -2 62 -2 85 0 24 2 5 4 -42 4 -47 0 -66 -2 -43 -4z"/>
<path d="M383 13 c26 -2 67 -2 90 0 23 2 2 3 -48 3 -49 0 -68 -1 -42 -3z"/>
<path d="M1063 13 c26 -2 67 -2 90 0 23 2 2 3 -48 3 -49 0 -68 -1 -42 -3z"/>
<path d="M1388 13 c29 -2 74 -2 100 0 26 2 2 3 -53 3 -55 0 -76 -1 -47 -3z"/>
<path d="M1578 13 c23 -2 59 -2 80 0 20 2 1 4 -43 4 -44 0 -61 -2 -37 -4z"/>
<path d="M1778 13 c34 -2 90 -2 125 0 34 2 6 3 -63 3 -69 0 -97 -1 -62 -3z"/>
<path d="M2378 13 c23 -2 61 -2 85 0 23 2 4 4 -43 4 -47 0 -66 -2 -42 -4z"/>
</g>
</svg>
